# xmcd
#
# Track frame offsets: 
#        150
#        19216
#        38441
#        58044
#        78145
#        92839
#        111389
#        129269
#        149877
#        166209
#        185177
#        204741
#
# Disc length: 2954 seconds
#
# Revision: 0
# Processed by: cddbd v1.5.2PL0 Copyright (c) Steve Scherf et al.
# Submitted via: ExactAudioCopy v1.2
#
DISCID=a90b880c
DTITLE=姚璎格 - 红
DYEAR=2019
DGENRE=Pop
TTITLE0=送别
TTITLE1=珊瑚颂
TTITLE2=鼓浪屿之波
TTITLE3=驼铃
TTITLE4=军港之夜
TTITLE5=愿做蝴蝶比翼飞
TTITLE6=妈妈留给我一首歌
TTITLE7=红梅赞
TTITLE8=心中的玫瑰
TTITLE9=映山红
TTITLE10=花儿为什么这样红
TTITLE11=绒花
EXTD=
EXTT0=
EXTT1=
EXTT2=
EXTT3=
EXTT4=
EXTT5=
EXTT6=
EXTT7=
EXTT8=
EXTT9=
EXTT10=
EXTT11=
PLAYORDER=
